<svg width="32" height="32" viewBox="0 0 32 32" fill="none" xmlns="http://www.w3.org/2000/svg">
<path fill-rule="evenodd" clip-rule="evenodd" d="M24.8012 15.8679C24.8012 18.4655 23.6644 21.5882 21.8677 23.2016V8.53418C23.6644 10.1476 24.8012 13.2703 24.8012 15.8679ZM8.22261 23.2016H4.26681C2.64899 23.2016 1.33333 21.8859 1.33333 20.2681V11.4677C1.33333 9.84984 2.64899 8.53418 4.26681 8.53418H8.22261L16.6549 2.91363C17.1037 2.61441 17.6845 2.58361 18.1598 2.84029C18.6365 3.0955 18.9342 3.59273 18.9342 4.13396V27.6018C18.9342 28.143 18.6365 28.6402 18.1598 28.8955C17.9427 29.0113 17.7051 29.0685 17.4675 29.0685C17.1829 29.0685 16.8984 28.9849 16.6534 28.8221L8.22261 23.2016ZM8.66703 11.4677H4.26681V20.2681H8.66703C8.6927 20.2681 8.71617 20.2751 8.73985 20.2822C8.75947 20.2881 8.77923 20.294 8.8005 20.296C8.89731 20.3048 8.98824 20.3238 9.08212 20.3517C9.18039 20.381 9.27132 20.4177 9.3608 20.4661C9.37687 20.4741 9.39424 20.4796 9.41171 20.485C9.43569 20.4925 9.45985 20.5001 9.48107 20.5145L16.0007 24.8619V6.87383L9.48107 11.2212C9.46194 11.2335 9.44043 11.2401 9.4188 11.2468C9.39897 11.253 9.37904 11.2591 9.3608 11.2696C9.27132 11.318 9.17892 11.3532 9.07918 11.3841C8.98678 11.4105 8.89731 11.431 8.80343 11.4398C8.78241 11.4418 8.76256 11.4476 8.7427 11.4534C8.71823 11.4605 8.69375 11.4677 8.66703 11.4677ZM30.6667 15.8679C30.6667 21.8683 27.0409 26.7995 21.8677 29.0685V26.135C25.3688 24.1021 27.7332 20.1991 27.7332 15.8679C27.7332 11.5366 25.3688 7.63359 21.8677 5.60069V2.66721C27.0409 4.93625 30.6667 9.86743 30.6667 15.8679Z" fill="currentColor"/>
</svg>
