<svg width="32" height="32" viewBox="0 0 32 32" fill="none" xmlns="http://www.w3.org/2000/svg">
<path fill-rule="evenodd" clip-rule="evenodd" d="M21.8677 23.2016C23.6645 21.5882 24.8012 18.4655 24.8012 15.8679C24.8012 13.2703 23.6645 10.1476 21.8677 8.53418V23.2016ZM4.26682 23.2016H8.22262L16.6534 28.8221C16.8984 28.9849 17.1829 29.0685 17.4675 29.0685C17.7051 29.0685 17.9427 29.0113 18.1598 28.8955C18.6365 28.6402 18.9342 28.143 18.9342 27.6018V4.13396C18.9342 3.59273 18.6365 3.0955 18.1598 2.84029C17.6846 2.58361 17.1037 2.61441 16.6549 2.91363L8.22262 8.53418H4.26682C2.64901 8.53418 1.33334 9.84984 1.33334 11.4677V20.2681C1.33334 21.8859 2.64901 23.2016 4.26682 23.2016ZM30.6667 15.8679C30.6667 21.8683 27.0409 26.7995 21.8677 29.0685V26.135C25.3688 24.1021 27.7332 20.1991 27.7332 15.8679C27.7332 11.5366 25.3688 7.63359 21.8677 5.60069V2.66721C27.0409 4.93625 30.6667 9.86743 30.6667 15.8679Z" fill="currentColor"/>
</svg>
