<svg width="32" height="32" viewBox="0 0 32 32" fill="none" xmlns="http://www.w3.org/2000/svg">
<path fill-rule="evenodd" clip-rule="evenodd" d="M9.33331 5.33334C8.97969 5.33334 8.64055 5.47381 8.3905 5.72386C8.14046 5.97391 7.99998 6.31305 7.99998 6.66667V25.4091L15.225 20.2484C15.6886 19.9172 16.3114 19.9172 16.775 20.2484L24 25.4091V6.66667C24 6.31305 23.8595 5.97391 23.6095 5.72386C23.3594 5.47381 23.0203 5.33334 22.6666 5.33334H9.33331ZM6.50489 3.83824C7.25503 3.0881 8.27245 2.66667 9.33331 2.66667H22.6666C23.7275 2.66667 24.7449 3.0881 25.4951 3.83824C26.2452 4.58839 26.6666 5.60581 26.6666 6.66667V28C26.6666 28.4995 26.3875 28.957 25.9434 29.1856C25.4993 29.4141 24.9647 29.3753 24.5583 29.085L16 22.9719L7.44163 29.085C7.03521 29.3753 6.50063 29.4141 6.05654 29.1856C5.61244 28.957 5.33331 28.4995 5.33331 28V6.66667C5.33331 5.60581 5.75474 4.58839 6.50489 3.83824Z" fill="currentColor"/>
</svg>
