<svg width="32" height="32" viewBox="0 0 32 32" fill="none" xmlns="http://www.w3.org/2000/svg">
<path d="M18.5479 6.2C18.5479 5.08609 18.1182 4.0178 17.3533 3.23015C16.5885 2.4425 15.5512 2 14.4695 2C13.3879 2 12.3505 2.4425 11.5857 3.23015C10.8208 4.0178 10.3911 5.08609 10.3911 6.2V15.314L8.5287 14.264C7.77985 13.8434 6.91384 13.6991 6.07441 13.8551C5.23497 14.0112 4.47259 14.4581 3.91382 15.1219C3.35504 15.7856 3.03347 16.6261 3.00247 17.504C2.97148 18.3819 3.23292 19.2442 3.74342 19.948L11.0709 30H26.5415L28.2 16.378L18.5479 13.578V6.2ZM25.2092 18.422L24.1488 27.2H12.4303L5.91854 18.254C5.75965 18.0594 5.6747 17.8121 5.67946 17.5579C5.68422 17.3037 5.77837 17.06 5.94443 16.8719C6.11049 16.6838 6.33718 16.5641 6.58243 16.535C6.82768 16.506 7.07482 16.5696 7.278 16.714L13.1101 20.046V6.2C13.1101 5.8287 13.2533 5.4726 13.5082 5.21005C13.7632 4.9475 14.109 4.8 14.4695 4.8C14.8301 4.8 15.1758 4.9475 15.4308 5.21005C15.6857 5.4726 15.829 5.8287 15.829 6.2V15.65L25.2092 18.422Z" fill="currentColor"/>
</svg>
